<svg width="22" height="16" viewBox="0 0 22 16" fill="none" xmlns="http://www.w3.org/2000/svg">
<path d="M18.151 15.9967H13.1881C13.1409 15.9967 13.0942 15.9874 13.0506 15.9694C13.007 15.9513 12.9674 15.9249 12.9341 15.8915C12.9007 15.8582 12.8743 15.8186 12.8562 15.775C12.8382 15.7314 12.8289 15.6847 12.8289 15.6376V9.15956H8.69197V15.6408C8.69197 15.7361 8.65413 15.8274 8.58678 15.8948C8.51942 15.9622 8.42807 16 8.33281 16H3.37308C3.27783 16 3.18647 15.9622 3.11912 15.8948C3.05176 15.8274 3.01392 15.7361 3.01392 15.6408V6.17197H0.369168C0.288124 6.17542 0.208334 6.15108 0.143016 6.10298C0.0776967 6.05488 0.0307685 5.98591 0.0100043 5.9075C-0.00876217 5.82929 -0.000981114 5.74706 0.0321221 5.67376C0.0652253 5.60046 0.12177 5.54025 0.192851 5.50262L10.5955 0.0400671C10.6459 0.0137462 10.7019 0 10.7588 0C10.8156 0 10.8717 0.0137462 10.9221 0.0400671L21.3215 5.50262C21.3919 5.54026 21.4477 5.60028 21.4802 5.67319C21.5127 5.74611 21.52 5.82776 21.5009 5.90527C21.4818 5.98278 21.4374 6.05171 21.3748 6.10119C21.3121 6.15067 21.2348 6.17787 21.155 6.1785H18.5102V15.6474C18.5077 15.7409 18.4687 15.8298 18.4016 15.895C18.3345 15.9603 18.2446 15.9968 18.151 15.9967ZM13.5472 15.2784H17.7919V5.80954C17.7919 5.76253 17.8012 5.71598 17.8193 5.67259C17.8374 5.62919 17.8639 5.58982 17.8973 5.55672C17.9307 5.52363 17.9703 5.49749 18.0138 5.47979C18.0574 5.4621 18.104 5.45321 18.151 5.45364H19.702L10.7621 0.76166L1.81888 5.46344H3.37308C3.46747 5.46344 3.558 5.50094 3.62474 5.56768C3.69149 5.63442 3.72898 5.72495 3.72898 5.81934V15.2882H7.97365V8.81346C7.97321 8.76645 7.9821 8.71982 7.99979 8.67626C8.01749 8.6327 8.04363 8.59308 8.07672 8.55969C8.10982 8.52629 8.1492 8.49978 8.19259 8.4817C8.23598 8.46361 8.28253 8.45429 8.32954 8.4543H13.1881C13.2833 8.4543 13.3747 8.49214 13.442 8.55949C13.5094 8.62685 13.5472 8.7182 13.5472 8.81346V15.2784Z" fill="url(#paint0_linear_23_1693)"/>
<defs>
<linearGradient id="paint0_linear_23_1693" x1="10.7556" y1="0" x2="10.7556" y2="16" gradientUnits="userSpaceOnUse">
<stop stop-color="#EE84FF"/>
<stop offset="1" stop-color="#933DFF"/>
</linearGradient>
</defs>
</svg>
