<svg width="16" height="16" viewBox="0 0 16 16" fill="none" xmlns="http://www.w3.org/2000/svg">
<path d="M15.6726 6.62969H9.59824C9.52764 6.62969 9.45993 6.60165 9.41 6.55173C9.36008 6.5018 9.33203 6.43409 9.33203 6.36349V0.267388C9.33182 0.214583 9.34732 0.162909 9.37656 0.118937C9.40579 0.0749647 9.44745 0.0406808 9.49622 0.020445C9.54499 0.00020924 9.59868 -0.0050641 9.65046 0.0052956C9.70224 0.0156553 9.74977 0.04118 9.787 0.0786237L15.8613 6.17715C15.8979 6.2145 15.9227 6.26182 15.9326 6.31319C15.9425 6.36455 15.937 6.41769 15.9169 6.46597C15.8968 6.51425 15.8629 6.55553 15.8194 6.58464C15.7759 6.61376 15.7249 6.62943 15.6726 6.62969ZM9.86444 6.0997H15.0312L9.86444 0.9087V6.0997Z" fill="url(#paint0_linear_23_1708)"/>
<path d="M15.6722 16.0002H0.266216C0.231053 16.0002 0.196238 15.9932 0.163782 15.9797C0.131326 15.9661 0.101871 15.9463 0.0771199 15.9213C0.0523686 15.8964 0.0328107 15.8667 0.0195758 15.8342C0.00634096 15.8016 -0.000308664 15.7667 1.10014e-05 15.7315V0.267426C1.10014e-05 0.196824 0.0280575 0.129114 0.0779807 0.0791904C0.127904 0.0292673 0.195614 0.0012207 0.266216 0.0012207L9.59792 0.0012207C9.66843 0.00196447 9.73597 0.0296752 9.78669 0.0786623L15.861 6.17718C15.9096 6.22697 15.9366 6.29395 15.936 6.36353V15.7315C15.9367 15.7666 15.9303 15.8014 15.9174 15.834C15.9044 15.8665 15.8851 15.8962 15.8605 15.9212C15.8359 15.9462 15.8066 15.9661 15.7743 15.9796C15.742 15.9932 15.7073 16.0002 15.6722 16.0002ZM0.532422 15.4678H15.406V6.47485L9.4866 0.533631H0.532422V15.4678Z" fill="url(#paint1_linear_23_1708)"/>
<defs>
<linearGradient id="paint0_linear_23_1708" x1="12.6347" y1="0.00012207" x2="12.6347" y2="6.62969" gradientUnits="userSpaceOnUse">
<stop stop-color="#EE84FF"/>
<stop offset="1" stop-color="#933DFF"/>
</linearGradient>
<linearGradient id="paint1_linear_23_1708" x1="7.96804" y1="0.0012207" x2="7.96804" y2="16.0002" gradientUnits="userSpaceOnUse">
<stop stop-color="#EE84FF"/>
<stop offset="1" stop-color="#933DFF"/>
</linearGradient>
</defs>
</svg>
