<svg width="21" height="16" viewBox="0 0 21 16" fill="none" xmlns="http://www.w3.org/2000/svg">
<path d="M19.9907 16.0001H0.339559C0.249502 16.0001 0.163134 15.9643 0.0994544 15.9006C0.0357748 15.837 0 15.7506 0 15.6605L0 0.346456C0 0.256399 0.0357748 0.170031 0.0994544 0.106351C0.163134 0.0426718 0.249502 0.00689697 0.339559 0.00689697H19.9907C20.0352 0.0068951 20.0792 0.0156994 20.1202 0.0328014C20.1612 0.0499034 20.1985 0.0749641 20.2298 0.106536C20.261 0.138108 20.2858 0.175566 20.3025 0.216745C20.3192 0.257925 20.3276 0.30201 20.3272 0.346456V15.6605C20.3276 15.705 20.3192 15.7491 20.3025 15.7903C20.2858 15.8314 20.261 15.8689 20.2298 15.9005C20.1985 15.932 20.1612 15.9571 20.1202 15.9742C20.0792 15.9913 20.0352 16.0001 19.9907 16.0001ZM0.679117 15.321H19.6512V0.686014H0.679117V15.321Z" fill="url(#paint0_linear_23_1716)"/>
<path d="M10.1655 10.4159C10.0755 10.4153 9.98923 10.3799 9.92472 10.3171L0.160873 0.587252C0.12777 0.556178 0.101234 0.518781 0.0828368 0.477273C0.0644393 0.435764 0.0545528 0.390988 0.0537624 0.345592C0.052972 0.300196 0.0612935 0.255103 0.0782349 0.212979C0.0951763 0.170856 0.120393 0.132557 0.152395 0.10035C0.184396 0.0681421 0.222531 0.0426792 0.264545 0.0254673C0.306559 0.00825543 0.351598 -0.000355957 0.396998 0.000142539C0.442398 0.000641036 0.487237 0.0102393 0.528862 0.0283696C0.570488 0.0464998 0.608055 0.0727939 0.639341 0.105696L10.1655 9.5979L19.6917 0.105696C19.723 0.0740569 19.7602 0.0489386 19.8013 0.0317957C19.8423 0.0146528 19.8864 0.00582587 19.9309 0.00582587C19.9754 0.00582587 20.0195 0.0146528 20.0605 0.0317957C20.1016 0.0489386 20.1388 0.0740569 20.1701 0.105696C20.2019 0.137252 20.227 0.174769 20.2442 0.21609C20.2614 0.257412 20.2703 0.301722 20.2703 0.346474C20.2703 0.391226 20.2614 0.435537 20.2442 0.476858C20.227 0.51818 20.2019 0.555697 20.1701 0.587252L10.4032 10.3171C10.3402 10.3803 10.2547 10.4158 10.1655 10.4159Z" fill="url(#paint1_linear_23_1716)"/>
<defs>
<linearGradient id="paint0_linear_23_1716" x1="10.1636" y1="0.00689697" x2="10.1636" y2="16.0001" gradientUnits="userSpaceOnUse">
<stop stop-color="#EE84FF"/>
<stop offset="1" stop-color="#933DFF"/>
</linearGradient>
<linearGradient id="paint1_linear_23_1716" x1="10.162" y1="0.00012207" x2="10.162" y2="10.4159" gradientUnits="userSpaceOnUse">
<stop stop-color="#EE84FF"/>
<stop offset="1" stop-color="#933DFF"/>
</linearGradient>
</defs>
</svg>
