<svg width="15" height="16" viewBox="0 0 15 16" fill="none" xmlns="http://www.w3.org/2000/svg">
<path d="M7.15576 9.05191C6.25979 9.05576 5.38284 8.79359 4.63599 8.29861C3.88915 7.80364 3.30602 7.09813 2.96048 6.27146C2.61493 5.44479 2.52253 4.53416 2.69496 3.65494C2.8674 2.77571 3.29691 1.96744 3.9291 1.33252C4.56129 0.697608 5.3677 0.264617 6.24618 0.0884001C7.12466 -0.0878167 8.03568 0.000670614 8.86383 0.342652C9.69197 0.684634 10.4 1.26472 10.8982 2.00943C11.3964 2.75414 11.6623 3.62996 11.6623 4.52593C11.6642 5.72353 11.1907 6.87291 10.3457 7.72155C9.50068 8.5702 8.35335 9.04869 7.15576 9.05191ZM7.15576 0.534429C6.36472 0.529617 5.59006 0.759822 4.93002 1.19585C4.26998 1.63189 3.75429 2.2541 3.44834 2.9836C3.14239 3.7131 3.05996 4.51703 3.21151 5.29344C3.36306 6.06985 3.74176 6.78376 4.29959 7.34466C4.85741 7.90556 5.56924 8.28818 6.3448 8.44399C7.12037 8.5998 7.92473 8.52179 8.6559 8.21985C9.38707 7.91791 10.0121 7.40565 10.4518 6.74801C10.8914 6.09038 11.1259 5.317 11.1254 4.52593C11.128 3.47032 10.7113 2.45688 9.9669 1.70839C9.22252 0.959909 8.21138 0.537646 7.15576 0.534429Z" fill="url(#paint0_linear_23_1700)"/>
<path d="M14.0456 15.9975C14.0106 15.9978 13.9759 15.9912 13.9435 15.9781C13.9111 15.9649 13.8816 15.9455 13.8568 15.9208C13.8319 15.8962 13.8122 15.8669 13.7987 15.8346C13.7853 15.8023 13.7783 15.7677 13.7784 15.7327C13.7952 14.8525 13.6364 13.9778 13.3112 13.1597C12.986 12.3416 12.501 11.5965 11.8845 10.9681C11.268 10.3397 10.5323 9.84044 9.72062 9.49965C8.9089 9.15886 8.03738 8.98334 7.15702 8.98334C6.27666 8.98334 5.40513 9.15886 4.59341 9.49965C3.78169 9.84044 3.04606 10.3397 2.42954 10.9681C1.81302 11.5965 1.32799 12.3416 1.00281 13.1597C0.677626 13.9778 0.518822 14.8525 0.535683 15.7327C0.535683 15.8036 0.507528 15.8716 0.457412 15.9217C0.407296 15.9718 0.339324 16 0.268449 16C0.197574 16 0.129602 15.9718 0.0794859 15.9217C0.0293697 15.8716 0.00121479 15.8036 0.00121479 15.7327C-0.0163051 14.7819 0.155836 13.8371 0.507582 12.9536C0.859327 12.0701 1.38362 11.2655 2.04984 10.5869C2.71605 9.90832 3.51082 9.36929 4.38772 9.00133C5.26461 8.63337 6.20605 8.44385 7.15702 8.44385C8.10799 8.44385 9.04942 8.63337 9.92632 9.00133C10.8032 9.36929 11.598 9.90832 12.2642 10.5869C12.9304 11.2655 13.4547 12.0701 13.8065 12.9536C14.1582 13.8371 14.3303 14.7819 14.3128 15.7327C14.3128 15.7677 14.3059 15.8023 14.2924 15.8346C14.279 15.8669 14.2593 15.8962 14.2344 15.9208C14.2096 15.9455 14.1801 15.9649 14.1477 15.9781C14.1153 15.9912 14.0806 15.9978 14.0456 15.9975Z" fill="url(#paint1_linear_23_1700)"/>
<defs>
<linearGradient id="paint0_linear_23_1700" x1="7.13633" y1="0" x2="7.13633" y2="9.05195" gradientUnits="userSpaceOnUse">
<stop stop-color="#EE84FF"/>
<stop offset="1" stop-color="#933DFF"/>
</linearGradient>
<linearGradient id="paint1_linear_23_1700" x1="7.15702" y1="8.44385" x2="7.15702" y2="16" gradientUnits="userSpaceOnUse">
<stop stop-color="#EE84FF"/>
<stop offset="1" stop-color="#933DFF"/>
</linearGradient>
</defs>
</svg>
