<svg width="28" height="21" viewBox="0 0 28 21" fill="none" xmlns="http://www.w3.org/2000/svg">
<path fill-rule="evenodd" clip-rule="evenodd" d="M3.61599 2H24.6944C25.5781 2 26.2944 2.71634 26.2944 3.6C26.2944 3.60178 26.2944 3.60356 26.2944 3.60534L26.2464 17.9715C26.2435 18.8531 25.528 19.5662 24.6464 19.5662H3.6C2.71634 19.5662 2 18.8498 2 17.9662C2 17.9656 2 17.965 2 17.9644L2.01599 3.59822C2.01697 2.71526 2.73303 2 3.61599 2Z" stroke="#A259FF" stroke-width="2.4" stroke-linejoin="round"/>
<path d="M13.4628 13.7197C13.9673 14.1494 14.7246 14.0888 15.1544 13.5843C15.5842 13.0798 15.5235 12.3224 15.019 11.8926L13.4628 13.7197ZM3.22045 1.84255C2.71593 1.41279 1.95855 1.4734 1.5288 1.97792C1.09905 2.48244 1.15966 3.23982 1.66418 3.66957L3.22045 1.84255ZM26.7613 3.66766C27.2648 3.23667 27.3235 2.47915 26.8926 1.97568C26.4616 1.47222 25.704 1.41347 25.2006 1.84446L26.7613 3.66766ZM13.4605 11.8946C12.957 12.3255 12.8983 13.0831 13.3293 13.5865C13.7603 14.09 14.5178 14.1487 15.0213 13.7178L13.4605 11.8946ZM15.019 11.8926C11.0862 8.54261 8.13652 6.03008 6.17009 4.35507C5.18688 3.51756 4.44946 2.88943 3.95786 2.47068C3.71206 2.2613 3.5277 2.10426 3.4048 1.99958C3.34336 1.94724 3.29725 1.90797 3.26654 1.8818C3.25115 1.8687 3.23968 1.85892 3.23197 1.85236C3.22808 1.84905 3.2253 1.84667 3.22333 1.845C3.22231 1.84413 3.22171 1.84362 3.22117 1.84316C3.22081 1.84286 3.22086 1.8429 3.22063 1.8427C3.22057 1.84265 3.22052 1.84261 3.22049 1.84258C3.22046 1.84256 3.22045 1.84255 2.44231 2.75606C1.66418 3.66957 1.66419 3.66958 1.66422 3.66961C1.66425 3.66963 1.6643 3.66967 1.66436 3.66972C1.66436 3.66973 1.66477 3.67008 1.6649 3.67018C1.66532 3.67054 1.66615 3.67126 1.66706 3.67202C1.66893 3.67362 1.67191 3.67615 1.6757 3.67939C1.68336 3.68591 1.69493 3.69576 1.71027 3.70883C1.741 3.73501 1.78707 3.77425 1.84853 3.8266C1.97144 3.9313 2.15578 4.08832 2.40159 4.2977C2.8932 4.71646 3.63061 5.34459 4.61382 6.18209C6.58025 7.85711 9.52989 10.3696 13.4628 13.7197L15.019 11.8926ZM25.981 2.75606C25.2006 1.84446 25.2006 1.84447 25.2005 1.8445C25.2005 1.84452 25.2005 1.84456 25.2004 1.84461C25.2003 1.84466 25.2 1.84492 25.1999 1.84507C25.1994 1.84551 25.1987 1.84607 25.1977 1.84691C25.1958 1.84855 25.1929 1.851 25.1891 1.85427C25.1815 1.86082 25.17 1.87063 25.1547 1.88372C25.1241 1.90989 25.0783 1.94914 25.0171 2.00149C24.8949 2.10618 24.7114 2.26321 24.4668 2.47259C23.9777 2.89134 23.2439 3.51947 22.2656 4.35698C20.3089 6.032 17.3739 8.54452 13.4605 11.8946L15.0213 13.7178C18.9346 10.3677 21.8696 7.8552 23.8263 6.18018C24.8047 5.34267 25.5384 4.71454 26.0276 4.29579C26.2722 4.08641 26.4556 3.92938 26.5779 3.82469C26.639 3.77235 26.6849 3.73308 26.7155 3.70692C26.7308 3.69383 26.7422 3.68402 26.7499 3.67747C26.7537 3.6742 26.7566 3.67175 26.7585 3.67011C26.7594 3.66932 26.7602 3.66865 26.7606 3.66827C26.7609 3.66801 26.761 3.66797 26.7612 3.66781C26.7612 3.66776 26.7613 3.66772 26.7613 3.6677C26.7613 3.66767 26.7613 3.66766 25.981 2.75606Z" fill="#A259FF"/>
</svg>
