<svg width="132" height="132" viewBox="0 0 132 132" fill="none" xmlns="http://www.w3.org/2000/svg">
<path d="M7.67658 35.9852H8.82476V37.1334C8.82476 38.0291 9.18055 38.888 9.81386 39.5213C10.4472 40.1546 11.3061 40.5104 12.2018 40.5104C13.0974 40.5104 13.9563 40.1546 14.5896 39.5213C15.223 38.888 15.5787 38.0291 15.5787 37.1334V35.9852H16.7269C17.6226 35.9852 18.4815 35.6295 19.1148 34.9961C19.7481 34.3628 20.1039 33.5039 20.1039 32.6083C20.1039 31.7126 19.7481 30.8537 19.1148 30.2204C18.4815 29.587 17.6226 29.2313 16.7269 29.2313H15.5787V28.0831C15.5787 27.1874 15.223 26.3285 14.5896 25.6952C13.9563 25.0619 13.0974 24.7061 12.2018 24.7061C11.3061 24.7061 10.4472 25.0619 9.81386 25.6952C9.18055 26.3285 8.82476 27.1874 8.82476 28.0831V29.2313H7.67658C6.78094 29.2313 5.92199 29.587 5.28868 30.2204C4.65537 30.8537 4.29958 31.7126 4.29958 32.6083C4.29958 33.5039 4.65537 34.3628 5.28868 34.9961C5.92199 35.6295 6.78094 35.9852 7.67658 35.9852Z" fill="url(#paint0_linear_12_85)"/>
<path d="M127.695 40.524H126.533V39.3758C126.533 38.4801 126.178 37.6212 125.544 36.9879C124.911 36.3546 124.052 35.9988 123.156 35.9988C122.261 35.9988 121.402 36.3546 120.768 36.9879C120.135 37.6212 119.779 38.4801 119.779 39.3758V40.524H118.631C117.735 40.524 116.877 40.8797 116.243 41.5131C115.61 42.1464 115.254 43.0053 115.254 43.9009C115.254 44.7966 115.61 45.6555 116.243 46.2888C116.877 46.9222 117.735 47.2779 118.631 47.2779H119.779V48.4396C119.779 49.3353 120.135 50.1942 120.768 50.8275C121.402 51.4608 122.261 51.8166 123.156 51.8166C124.052 51.8166 124.911 51.4608 125.544 50.8275C126.178 50.1942 126.533 49.3353 126.533 48.4396V47.2779H127.695C128.591 47.2779 129.45 46.9222 130.083 46.2888C130.716 45.6555 131.072 44.7966 131.072 43.9009C131.072 43.0053 130.716 42.1464 130.083 41.5131C129.45 40.8797 128.591 40.524 127.695 40.524Z" fill="url(#paint1_linear_12_85)"/>
<path d="M64.3426 99.9591C64.3426 93.6273 62.465 87.4377 58.9472 82.1731C55.4295 76.9084 50.4296 72.8051 44.5798 70.3821C38.7301 67.959 32.2931 67.325 26.083 68.5603C19.8729 69.7955 14.1686 72.8446 9.69139 77.3218C5.21416 81.799 2.16513 87.5034 0.929866 93.7135C-0.305398 99.9235 0.328585 106.36 2.75164 112.21C5.1747 118.06 9.278 123.06 14.5427 126.578C19.8073 130.095 25.9969 131.973 32.3286 131.973C40.816 131.962 48.9526 128.586 54.9541 122.584C60.9555 116.583 64.3318 108.446 64.3426 99.9591ZM34.625 109.415V113.102H29.8972V109.658C25.8448 109.293 21.941 107.415 20.212 103.363L24.6291 101.526C25.5476 103.876 28.8301 105.362 31.8829 105.362C35.1923 105.362 38.2586 104.228 38.2586 101.31C38.2586 98.8784 35.1923 98.0004 31.7748 97.5952C26.5067 97.0008 21.3602 96.0823 21.3602 89.9767C21.3602 85.1543 25.6287 82.939 29.8972 82.4257V79.2918H34.571V82.4932C37.7048 82.966 40.5685 84.1547 42.23 87.5317L38.2586 89.3823C37.2996 87.7884 34.571 86.5726 32.0315 86.5726C28.9787 86.5726 26.1825 87.4642 26.1825 90.0442C26.1825 92.6242 29.0867 92.9079 32.1801 93.2726C37.5832 93.9345 43.2971 94.8936 43.2971 101.377C43.2971 106.348 39.1367 109.144 34.571 109.415H34.625ZM12.1477 105.16L9.77031 108.847L13.0528 107.767L13.3499 108.685L8.41952 110.293L8.17637 109.55L10.5808 105.876L7.32537 106.956L7.06872 106.038L11.9451 104.417L12.1477 105.16ZM15.0249 111.319C15.236 111.648 15.3785 112.015 15.4437 112.4C15.5257 112.742 15.5257 113.098 15.4437 113.44C15.3396 113.752 15.1844 114.044 14.9844 114.305C14.7811 114.574 14.5291 114.803 14.2415 114.98C13.9602 115.163 13.6494 115.295 13.3229 115.372C13.0061 115.433 12.6806 115.433 12.3638 115.372C12.0214 115.33 11.6932 115.21 11.4048 115.02C11.0735 114.788 10.7893 114.494 10.5673 114.156C10.3504 113.823 10.1991 113.452 10.1215 113.062C10.0391 112.725 10.0391 112.372 10.1215 112.035C10.2166 111.722 10.3676 111.43 10.5673 111.171C10.775 110.905 11.0262 110.677 11.3102 110.495C11.6002 110.287 11.9302 110.141 12.2794 110.066C12.6285 109.991 12.9894 109.989 13.3395 110.06C13.6895 110.131 14.021 110.273 14.3134 110.478C14.6057 110.683 14.8526 110.947 15.0384 111.252L15.0249 111.319ZM11.81 111.319C11.4313 111.563 11.1494 111.93 11.013 112.359C10.9438 112.589 10.931 112.831 10.9757 113.066C11.0204 113.301 11.1213 113.522 11.2697 113.71C11.3796 113.917 11.5375 114.096 11.7302 114.229C11.9228 114.363 12.1447 114.449 12.3774 114.48C12.8498 114.532 13.3258 114.422 13.7282 114.169C14.1161 113.927 14.4111 113.56 14.5656 113.129C14.6361 112.903 14.6533 112.663 14.6158 112.429C14.5783 112.194 14.4872 111.972 14.3495 111.779C14.2296 111.574 14.0655 111.399 13.8692 111.265C13.6729 111.132 13.4494 111.044 13.2149 111.009C12.9682 110.97 12.7162 110.982 12.4746 111.045C12.2329 111.108 12.0067 111.22 11.81 111.373V111.319ZM18.3479 121.828L17.4699 121.153L17.3618 118.87L16.5243 118.37L15.4572 119.721L14.7007 119.113L17.8751 115.061C18.0777 115.237 18.4019 115.48 18.8342 115.817L19.7932 116.574C20.1999 116.872 20.4719 117.319 20.5497 117.817C20.5778 118.037 20.5612 118.26 20.5009 118.474C20.4405 118.687 20.3377 118.887 20.1985 119.059C19.9761 119.351 19.6697 119.568 19.3205 119.681C18.933 119.782 18.5211 119.729 18.1723 119.532L18.3479 121.828ZM19.2259 117.303L18.0642 116.398L17.0511 117.749L18.1993 118.668C18.2919 118.747 18.3993 118.806 18.5153 118.843C18.6312 118.881 18.7534 118.894 18.8747 118.884C19.0852 118.847 19.2737 118.731 19.4015 118.56C19.4707 118.478 19.5231 118.383 19.5555 118.281C19.588 118.179 19.5999 118.072 19.5906 117.965C19.5802 117.835 19.5424 117.709 19.4795 117.595C19.4166 117.481 19.3302 117.381 19.2259 117.303ZM23.6025 123.476L23.1972 124.354L19.6987 122.734L21.9275 118.073L25.4261 119.681L25.0343 120.545L22.4138 119.329L21.914 120.397L24.44 121.572L24.0618 122.382L21.5358 121.221L21.0495 122.274L23.6025 123.476ZM28.8841 125.732L28.6815 124.706L25.9799 124.179L25.345 125.043L24.3184 124.827L27.6684 120.221L28.7085 120.424L30.0323 125.948L28.8841 125.732ZM28.4383 123.747L27.9386 121.41L26.5878 123.368L28.4383 123.747ZM31.221 120.788H32.1936L32.2881 125.043H34.9897V125.935H31.3831L31.221 120.788ZM42.5947 123.855L41.352 120.329L40.5145 123.031H40.3389L38.1371 121.491L39.3798 125.016L38.4748 125.341L36.7052 120.491L37.7589 120.113L40.0147 121.666L40.8387 119.046L41.8788 118.681L43.5403 123.53L42.5947 123.855ZM44.2967 116.817C44.6184 116.595 44.9812 116.438 45.3638 116.358C45.7058 116.276 46.062 116.276 46.404 116.358C46.7243 116.442 47.0265 116.583 47.2955 116.776C47.5688 116.973 47.8064 117.215 47.9979 117.492C48.1849 117.767 48.3305 118.067 48.4302 118.384C48.5199 118.7 48.5564 119.029 48.5382 119.357C48.5044 119.701 48.3936 120.033 48.214 120.329C47.7728 121.004 47.0923 121.487 46.3094 121.68C45.9713 121.755 45.6209 121.755 45.2828 121.68C44.9681 121.599 44.6707 121.461 44.4048 121.275C44.1314 121.078 43.8938 120.836 43.7024 120.559C43.4865 120.272 43.3299 119.945 43.2418 119.597C43.1537 119.249 43.1358 118.887 43.1891 118.533C43.252 118.183 43.3865 117.85 43.5841 117.555C43.7817 117.26 44.0381 117.009 44.3372 116.817H44.2967ZM44.4858 120.032C44.7474 120.396 45.123 120.662 45.553 120.788C45.7866 120.848 46.0311 120.851 46.266 120.797C46.501 120.743 46.7197 120.633 46.9038 120.478C47.1055 120.357 47.2755 120.189 47.4 119.99C47.5245 119.79 47.5998 119.564 47.6197 119.329C47.6399 118.885 47.5169 118.446 47.2689 118.076C47.0209 117.706 46.661 117.426 46.2419 117.276C46.0112 117.213 45.769 117.205 45.5346 117.252C45.3001 117.299 45.0798 117.4 44.8911 117.546C44.6907 117.674 44.5212 117.844 44.395 118.045C44.2688 118.246 44.1891 118.472 44.1616 118.708C44.1144 119.179 44.2444 119.651 44.5264 120.032H44.4858ZM47.3225 114.399L51.7396 114.521L49.038 112.305L49.6594 111.562L53.6848 114.818L53.185 115.412L48.8084 115.358L51.4289 117.519L50.8076 118.262L46.8632 114.966L47.3225 114.399ZM55.5759 109.212L56.4269 109.644L54.7249 113.089L50.1592 110.765L51.8612 107.321L52.6987 107.726L51.4289 110.32L52.4826 110.846L53.7118 108.348L54.5223 108.739L53.293 111.238L54.3331 111.752L55.5759 109.212ZM52.1854 106.105L54.5898 105.362L52.8473 103.539L53.1174 102.404L55.5354 105.106L57.6021 105.592L57.3724 106.537L55.3057 106.051L51.9557 107.28L52.1854 106.105Z" fill="url(#paint2_linear_12_85)"/>
<path d="M95.3704 49.142L95.1813 48.9529C92.4057 46.7168 90.5264 43.5575 89.8861 40.0512L89.3728 37.6602C90.5775 36.6011 91.5443 35.2989 92.2094 33.8393C92.8746 32.3797 93.2231 30.7957 93.232 29.1917C93.241 27.5877 92.9101 26 92.2612 24.533C91.6124 23.0661 90.6602 21.7532 89.4674 20.6807C90.1698 19.2083 90.8182 17.4388 91.7773 15.2775L93.9926 10.2255C94.2525 9.63526 94.3371 8.98271 94.2366 8.34565C94.136 7.7086 93.8543 7.11389 93.4252 6.63241L93.3037 6.48382C91.6692 4.53867 87.7924 0.121559 82.8755 0.121559C80.6591 0.103611 78.5106 0.885339 76.8239 2.32336C75.9864 2.95824 75.7298 3.16086 74.8653 3.16086C74.4968 3.16313 74.1318 3.09001 73.7926 2.94598C73.4535 2.80195 73.1474 2.59007 72.8931 2.32336C71.1951 0.911684 69.0565 0.138829 66.8483 0.138829C64.6401 0.138829 62.5015 0.911684 60.8035 2.32336C60.5492 2.59007 60.2431 2.80195 59.904 2.94598C59.5648 3.09001 59.1998 3.16313 58.8313 3.16086C58.1964 3.16086 57.8722 2.95824 56.8591 2.16126C55.8992 1.24303 54.7179 0.588791 53.4303 0.262147C52.1426 -0.0644977 50.7924 -0.0524347 49.5108 0.297163C46.4588 1.23452 43.57 2.6379 40.9467 4.45762C40.3817 4.83139 39.941 5.36527 39.6811 5.99093C39.4212 6.61659 39.3539 7.30558 39.4879 7.9697C40.489 12.4355 42.0077 16.7694 44.013 20.8833C42.8969 21.9445 42.0081 23.2216 41.4008 24.6369C40.7935 26.0523 40.4804 27.5763 40.4804 29.1164C40.4804 30.6566 40.7935 32.1806 41.4008 33.596C42.0081 35.0113 42.8969 36.2884 44.013 37.3496L43.878 37.9439C42.6978 42.6385 40.2436 46.9157 36.7863 50.3037C32.0261 54.134 28.0808 58.8785 25.1829 64.2575C27.4118 63.8553 29.672 63.6519 31.9369 63.6496C32.4502 63.6496 32.9635 63.6496 33.4633 63.6496C35.6065 60.5688 38.1814 57.812 41.1088 55.4638L41.2574 55.3422C45.5339 51.2421 48.6116 46.0536 50.1592 40.3348C50.7135 40.4206 51.2733 40.4657 51.8342 40.4699H81.8489C82.2541 40.4699 82.6594 40.4699 83.0646 40.4699C83.1457 40.8211 83.2132 41.1588 83.2672 41.4425C84.194 46.2852 86.7487 50.6654 90.5075 53.8563L90.8452 54.194L91.1964 54.4777C96.0728 57.9625 100.051 62.5563 102.804 67.8805C105.556 73.2046 107.004 79.1067 107.028 85.1003C107.028 106.308 88.9811 123.585 66.8415 123.585C64.6611 123.585 62.4841 123.414 60.3307 123.071C58.5485 125.158 56.5417 127.043 54.3467 128.691C58.4169 129.785 62.6133 130.339 66.828 130.339C92.6958 130.339 113.782 110.036 113.782 85.1003C113.773 78.0781 112.1 71.158 108.899 64.9075C105.699 58.657 101.063 53.2541 95.3704 49.142ZM81.8489 33.7699H51.8477C50.6189 33.7699 49.4404 33.2818 48.5715 32.4129C47.7026 31.544 47.2144 30.3655 47.2144 29.1367C47.2144 27.9079 47.7026 26.7294 48.5715 25.8605C49.4404 24.9916 50.6189 24.5035 51.8477 24.5035H81.8489C83.0777 24.5035 84.2562 24.9916 85.1251 25.8605C85.994 26.7294 86.4821 27.9079 86.4821 29.1367C86.4821 30.3655 85.994 31.544 85.1251 32.4129C84.2562 33.2818 83.0777 33.7699 81.8489 33.7699ZM85.6311 12.4273L85.5231 12.711C84.6586 14.8723 83.9697 16.5608 83.3483 17.844C82.8515 17.774 82.3506 17.7379 81.8489 17.736H77.0671L77.7695 16.088C77.9469 15.6809 78.0424 15.2428 78.0504 14.7988C78.0585 14.3548 77.9791 13.9136 77.8167 13.5003C77.6542 13.087 77.412 12.7097 77.1037 12.39C76.7955 12.0703 76.4273 11.8145 76.0202 11.6371C75.6131 11.4597 75.175 11.3643 74.731 11.3562C74.287 11.3481 73.8458 11.4275 73.4325 11.5899C73.0192 11.7524 72.6419 11.9946 72.3222 12.3029C72.0026 12.6111 71.7467 12.9793 71.5693 13.3864L69.8673 17.3442C69.8233 17.4541 69.7872 17.5669 69.7593 17.6819H62.8432C62.8624 17.2908 62.8214 16.899 62.7216 16.5202L61.5734 12.7245C61.3155 11.8665 60.7273 11.1461 59.9382 10.7218C59.1491 10.2974 58.2237 10.204 57.3657 10.4619C56.5077 10.7199 55.7873 11.3081 55.3629 12.0972C54.9386 12.8863 54.8452 13.8116 55.1031 14.6697L56.0081 17.6819H51.8477C51.2503 17.6833 50.654 17.733 50.0646 17.8305C48.624 14.9692 47.4789 11.9684 46.6471 8.87473C48.0937 7.97123 49.651 7.25842 51.2803 6.75398C51.6856 6.64591 51.6991 6.64591 52.6311 7.42938C54.3207 8.95282 56.5028 9.81608 58.7773 9.86081C61.0056 9.90939 63.1757 9.14604 64.8829 7.71304C65.7339 7.06466 65.977 6.87555 66.855 6.87555C67.221 6.86851 67.5843 6.93819 67.9216 7.08011C68.259 7.22203 68.5629 7.43303 68.8137 7.69954C70.4972 9.14457 72.6467 9.93147 74.8653 9.91485C77.077 9.92954 79.2202 9.14801 80.9033 7.71304C81.7543 7.06466 82.011 6.87555 82.8755 6.87555C83.74 6.87555 84.8342 7.36184 86.9279 9.46908L85.6311 12.4273Z" fill="url(#paint3_linear_12_85)"/>
<defs>
<linearGradient id="paint0_linear_12_85" x1="12.2018" y1="24.7061" x2="12.2018" y2="40.5104" gradientUnits="userSpaceOnUse">
<stop stop-color="#EE84FF"/>
<stop offset="1" stop-color="#933DFF"/>
</linearGradient>
<linearGradient id="paint1_linear_12_85" x1="123.163" y1="35.9988" x2="123.163" y2="51.8166" gradientUnits="userSpaceOnUse">
<stop stop-color="#EE84FF"/>
<stop offset="1" stop-color="#933DFF"/>
</linearGradient>
<linearGradient id="paint2_linear_12_85" x1="32.3286" y1="67.9451" x2="32.3286" y2="131.973" gradientUnits="userSpaceOnUse">
<stop stop-color="#EE84FF"/>
<stop offset="1" stop-color="#933DFF"/>
</linearGradient>
<linearGradient id="paint3_linear_12_85" x1="69.4823" y1="0.0257568" x2="69.4823" y2="130.339" gradientUnits="userSpaceOnUse">
<stop stop-color="#EE84FF"/>
<stop offset="1" stop-color="#933DFF"/>
</linearGradient>
</defs>
</svg>
