<svg width="109" height="132" viewBox="0 0 109 132" fill="none" xmlns="http://www.w3.org/2000/svg">
<path d="M107.822 23.9969L86.3842 1.32188C85.9872 0.903116 85.5089 0.569866 84.9785 0.342562C84.4481 0.115258 83.8769 -0.0013085 83.2999 1.10794e-05H4.64894C3.52529 1.10794e-05 2.44766 0.446381 1.65311 1.24092C0.858571 2.03547 0.412201 3.1131 0.412201 4.23675L0.412201 127.763C0.412201 128.887 0.858571 129.965 1.65311 130.759C2.44766 131.554 3.52529 132 4.64894 132H104.738C105.861 132 106.939 131.554 107.734 130.759C108.528 129.965 108.975 128.887 108.975 127.763V26.9118C108.975 25.8289 108.563 24.7864 107.822 23.9969ZM8.88569 123.527V8.4735H77.0464V29.6572C77.0464 30.7809 77.4928 31.8585 78.2873 32.653C79.0819 33.4476 80.1595 33.894 81.2832 33.894H100.501V123.527H8.88569Z" fill="url(#paint0_linear_10_28)"/>
<path d="M83.2999 96.1911C82.1763 96.1911 81.0986 96.6375 80.3041 97.432C79.5095 98.2266 79.0632 99.3042 79.0632 100.428V112.545C79.0632 113.669 79.5095 114.746 80.3041 115.541C81.0986 116.335 82.1763 116.782 83.2999 116.782C84.4236 116.782 85.5012 116.335 86.2957 115.541C87.0903 114.746 87.5367 113.669 87.5367 112.545V100.428C87.5367 99.3042 87.0903 98.2266 86.2957 97.432C85.5012 96.6375 84.4236 96.1911 83.2999 96.1911Z" fill="url(#paint1_linear_10_28)"/>
<path d="M71.9962 65.6865C67.876 65.691 63.9258 67.3298 61.0124 70.2432C58.099 73.1566 56.4603 77.1067 56.4558 81.2269V112.545C56.4577 113.291 56.6561 114.024 57.0309 114.67C57.4057 115.315 57.9438 115.851 58.5911 116.222C59.2304 116.59 59.9551 116.783 60.6925 116.782C61.45 116.779 62.193 116.574 62.8448 116.189L74.1484 109.545C75.0346 108.942 75.659 108.025 75.8959 106.98C76.1328 105.934 75.9646 104.838 75.4251 103.911C74.8856 102.985 74.0149 102.297 72.9887 101.987C71.9624 101.678 70.8568 101.768 69.8947 102.241L64.9293 105.071V95.0557C67.0222 96.1287 69.3314 96.7127 71.6828 96.7636C74.0343 96.8146 76.3666 96.3311 78.504 95.3496C80.6415 94.3682 82.5282 92.9144 84.0222 91.0978C85.5161 89.2812 86.5782 87.1492 87.1285 84.8625C87.6787 82.5758 87.7027 80.194 87.1987 77.8967C86.6947 75.5993 85.6758 73.4463 84.2188 71.6C82.7618 69.7536 80.9047 68.2621 78.7875 67.2378C76.6702 66.2134 74.3481 65.683 71.9962 65.6865Z" fill="url(#paint2_linear_10_28)"/>
<path d="M66.3358 29.1996H24.7141V37.6731H66.3358V29.1996Z" fill="url(#paint3_linear_10_28)"/>
<path d="M83.6218 49.0106H24.7141V57.4841H83.6218V49.0106Z" fill="url(#paint4_linear_10_28)"/>
<path d="M51.1683 68.8217H24.7141V77.2951H51.1683V68.8217Z" fill="url(#paint5_linear_10_28)"/>
<path d="M48.8296 88.6326H24.7141V97.1061H48.8296V88.6326Z" fill="url(#paint6_linear_10_28)"/>
<defs>
<linearGradient id="paint0_linear_10_28" x1="54.6934" y1="0" x2="54.6934" y2="132" gradientUnits="userSpaceOnUse">
<stop stop-color="#EE84FF"/>
<stop offset="1" stop-color="#933DFF"/>
</linearGradient>
<linearGradient id="paint1_linear_10_28" x1="83.2999" y1="96.1911" x2="83.2999" y2="116.782" gradientUnits="userSpaceOnUse">
<stop stop-color="#EE84FF"/>
<stop offset="1" stop-color="#933DFF"/>
</linearGradient>
<linearGradient id="paint2_linear_10_28" x1="72.0077" y1="65.6865" x2="72.0077" y2="116.782" gradientUnits="userSpaceOnUse">
<stop stop-color="#EE84FF"/>
<stop offset="1" stop-color="#933DFF"/>
</linearGradient>
<linearGradient id="paint3_linear_10_28" x1="45.525" y1="29.1996" x2="45.525" y2="37.6731" gradientUnits="userSpaceOnUse">
<stop stop-color="#EE84FF"/>
<stop offset="1" stop-color="#933DFF"/>
</linearGradient>
<linearGradient id="paint4_linear_10_28" x1="54.1679" y1="49.0106" x2="54.1679" y2="57.4841" gradientUnits="userSpaceOnUse">
<stop stop-color="#EE84FF"/>
<stop offset="1" stop-color="#933DFF"/>
</linearGradient>
<linearGradient id="paint5_linear_10_28" x1="37.9412" y1="68.8217" x2="37.9412" y2="77.2951" gradientUnits="userSpaceOnUse">
<stop stop-color="#EE84FF"/>
<stop offset="1" stop-color="#933DFF"/>
</linearGradient>
<linearGradient id="paint6_linear_10_28" x1="36.7719" y1="88.6326" x2="36.7719" y2="97.1061" gradientUnits="userSpaceOnUse">
<stop stop-color="#EE84FF"/>
<stop offset="1" stop-color="#933DFF"/>
</linearGradient>
</defs>
</svg>
