<svg width="150" height="132" viewBox="0 0 150 132" fill="none" xmlns="http://www.w3.org/2000/svg">
<path d="M8.038 32.3127H0V110.474H8.038V32.3127Z" fill="url(#paint0_linear_10_66)"/>
<path d="M127.997 94.318H105.057V80.8302H97.0186V94.318H44.4501C43.3842 94.318 42.362 94.7414 41.6083 95.4951C40.8546 96.2488 40.4311 97.2711 40.4311 98.337V111.696C40.4328 114.464 39.4957 117.151 37.7729 119.318C36.0502 121.484 33.6436 123.003 30.9463 123.625C28.2621 122.985 25.8713 121.461 24.1594 119.297C22.4475 117.133 21.5141 114.455 21.5097 111.696V29.596H97.0669V32.3129H105.105V4.01911C105.105 3.48724 104.999 2.96066 104.794 2.46988C104.589 1.9791 104.289 1.53389 103.911 1.16006C103.532 0.78622 103.084 0.491194 102.59 0.29208C102.097 0.0929661 101.569 -0.00627609 101.038 0.000106296H4.019C2.95309 0.000106296 1.93085 0.423535 1.17714 1.17724C0.423429 1.93095 0 2.9532 0 4.01911L0 24.2266H8.038V8.0381H97.0186V21.558H17.4907C16.4248 21.558 15.4025 21.9814 14.6488 22.7352C13.8951 23.4889 13.4717 24.5111 13.4717 25.577V111.696C13.4806 116.464 15.1646 121.077 18.2294 124.73C21.2942 128.382 25.545 130.842 30.2389 131.679V131.679H30.464C30.9624 131.679 31.4446 131.839 31.943 131.888C32.4414 131.936 33.1648 131.888 33.7596 131.888H111.696C117.062 131.883 122.208 129.759 126.015 125.977C129.821 122.195 131.978 117.062 132.016 111.696V98.337C132.016 97.8092 131.912 97.2866 131.71 96.799C131.508 96.3114 131.212 95.8683 130.839 95.4951C130.466 95.1219 130.023 94.8259 129.535 94.6239C129.047 94.4219 128.525 94.318 127.997 94.318V94.318Z" fill="url(#paint1_linear_10_66)"/>
<path d="M121.017 27.7958L81.7098 59.5692L93.1095 73.6717L132.416 41.8983L121.017 27.7958Z" fill="url(#paint2_linear_10_66)"/>
<path d="M75.4929 64.6577L68.4677 81.9233L86.8265 78.6759L75.4929 64.6577Z" fill="url(#paint3_linear_10_66)"/>
<path d="M146.067 30.9302C147.066 30.1325 147.896 29.1441 148.51 28.0226C149.123 26.9011 149.508 25.6687 149.641 24.3973C149.774 23.1258 149.653 21.8405 149.285 20.6162C148.917 19.3919 148.309 18.253 147.497 17.2656L147.337 17.0727C146.539 16.0737 145.55 15.2432 144.429 14.6296C143.307 14.016 142.075 13.6314 140.804 13.4983C139.532 13.3651 138.247 13.4861 137.023 13.8541C135.798 14.2221 134.659 14.8298 133.672 15.6419L129.862 18.7285L125.393 22.5064L137.45 37.5053C140.199 40.5758 138.446 44.2411 137.723 45.5433L105.491 71.0077L110.474 77.3095L143.301 51.2985C143.593 51.0711 143.848 50.8 144.057 50.4947C146.452 47.183 149.362 39.2415 143.944 32.6343L146.067 30.9302ZM141.003 24.6766L137.209 27.7632L134.926 24.966L138.736 21.8794C139.034 21.6326 139.41 21.5013 139.797 21.5097H139.958C140.404 21.5552 140.814 21.7747 141.099 22.1206L141.244 22.3135C141.393 22.4801 141.505 22.676 141.574 22.8886C141.643 23.1012 141.667 23.3259 141.645 23.5483C141.622 23.7707 141.553 23.9859 141.443 24.1802C141.332 24.3744 141.182 24.5435 141.003 24.6766V24.6766Z" fill="url(#paint4_linear_10_66)"/>
<path d="M36.7176 76.57V70.7344H43.148V48.7103L36.9748 50.4786V44.209L49.8356 39.9006V70.7344H55.9123V76.6021L36.7176 76.57Z" fill="url(#paint5_linear_10_66)"/>
<path d="M43.1962 86.0387V80.6372L40.7687 83.8524H40.4954L38.1162 80.6372V86.0548H36.7176V78.5795H38.3252L40.6562 81.7947L42.9872 78.5795H44.5948V86.0387H43.1962Z" fill="url(#paint6_linear_10_66)"/>
<path d="M47.7618 86.0226H46.3632V78.5795H47.7618V86.0226Z" fill="url(#paint7_linear_10_66)"/>
<path d="M50.6715 78.5795L54.6584 83.5952V78.5795H56.0731V86.0226H54.9317L50.9609 81.0712V86.0226H49.5623V78.5795H50.6715Z" fill="url(#paint8_linear_10_66)"/>
<defs>
<linearGradient id="paint0_linear_10_66" x1="4.019" y1="32.3127" x2="4.019" y2="110.474" gradientUnits="userSpaceOnUse">
<stop stop-color="#EE84FF"/>
<stop offset="1" stop-color="#933DFF"/>
</linearGradient>
<linearGradient id="paint1_linear_10_66" x1="66.008" y1="-0.000183105" x2="66.008" y2="131.909" gradientUnits="userSpaceOnUse">
<stop stop-color="#EE84FF"/>
<stop offset="1" stop-color="#933DFF"/>
</linearGradient>
<linearGradient id="paint2_linear_10_66" x1="101.363" y1="43.6825" x2="112.763" y2="57.785" gradientUnits="userSpaceOnUse">
<stop stop-color="#EE84FF"/>
<stop offset="1" stop-color="#933DFF"/>
</linearGradient>
<linearGradient id="paint3_linear_10_66" x1="77.6471" y1="64.6577" x2="77.6471" y2="81.9233" gradientUnits="userSpaceOnUse">
<stop stop-color="#EE84FF"/>
<stop offset="1" stop-color="#933DFF"/>
</linearGradient>
<linearGradient id="paint4_linear_10_66" x1="127.592" y1="13.4458" x2="127.592" y2="77.3095" gradientUnits="userSpaceOnUse">
<stop stop-color="#EE84FF"/>
<stop offset="1" stop-color="#933DFF"/>
</linearGradient>
<linearGradient id="paint5_linear_10_66" x1="46.3149" y1="39.9006" x2="46.3149" y2="76.6021" gradientUnits="userSpaceOnUse">
<stop stop-color="#EE84FF"/>
<stop offset="1" stop-color="#933DFF"/>
</linearGradient>
<linearGradient id="paint6_linear_10_66" x1="40.6562" y1="78.5795" x2="40.6562" y2="86.0548" gradientUnits="userSpaceOnUse">
<stop stop-color="#EE84FF"/>
<stop offset="1" stop-color="#933DFF"/>
</linearGradient>
<linearGradient id="paint7_linear_10_66" x1="47.0625" y1="78.5795" x2="47.0625" y2="86.0226" gradientUnits="userSpaceOnUse">
<stop stop-color="#EE84FF"/>
<stop offset="1" stop-color="#933DFF"/>
</linearGradient>
<linearGradient id="paint8_linear_10_66" x1="52.8177" y1="78.5795" x2="52.8177" y2="86.0226" gradientUnits="userSpaceOnUse">
<stop stop-color="#EE84FF"/>
<stop offset="1" stop-color="#933DFF"/>
</linearGradient>
</defs>
</svg>
